<svg xmlns="http://www.w3.org/2000/svg" viewBox="0 0 197.36 125.39"><defs><style>.cls-1{fill:#0d0703;}.cls-2{fill:#1d1d1b;}</style></defs><title>logo</title><g id="Ebene_2" data-name="Ebene 2"><g id="Ebene_1-2" data-name="Ebene 1"><path class="cls-1" d="M23.25,47.79c-2.08-3.1-5.37-6-7.36-9a26.65,26.65,0,0,1-2.62-4.73c0-.77.06-1.55.09-2.3a1.91,1.91,0,0,0-.07-.82c-.09-.2-.38-.15-.38-.15L11,30.71a.4.4,0,0,0-.38.31,4.88,4.88,0,0,0-.11,1c-.39,11.27-.09,25.42.27,40.25l-.17-.11h0s0,0-.1,0l-.87-.53h0l-.24.11a7.28,7.28,0,0,0-3,0,8.94,8.94,0,0,0-4.78,2.6A5.78,5.78,0,0,0,0,77.85l0,.57,0,.29c.15.33-.31-.52.33.77l.19.16a2.68,2.68,0,0,0,1.5.56,6.67,6.67,0,0,0,2.29-.26c2.32-.77,5.48-2.23,6.42-5.56q.1,4.17.21,8.4c0,1.2.07,2,.09,2.4L10.87,85h0l-.24.11a7.28,7.28,0,0,0-3,0,8.93,8.93,0,0,0-4.78,2.6,5.77,5.77,0,0,0-1.6,3.54l0,.57,0,.29c.15.33-.31-.52.33.77l.19.16a2.68,2.68,0,0,0,1.5.56,6.7,6.7,0,0,0,2.29-.26c2.58-.86,6.2-2.55,6.66-6.74v-.72c.53.32.29.17-.14-.09a3.38,3.38,0,0,0,0-.43s0-.89,0-2.45c-.2-9.84.47-33.84,1.13-47.49a22.53,22.53,0,0,0,1.24,4.16c1.37,3.58,4.35,7.39,6.05,10,3.42,4.71.17,8.74.69,8.77a8.32,8.32,0,0,0,2.17-1.93c1.39-1.26,2.28-5.44-.12-8.6M2.85,76.2a5.25,5.25,0,0,1,.35-.56A9,9,0,0,1,6.73,72.9a9.45,9.45,0,0,1,.93-.35c-.6.31-1.19.64-1.76,1A14.54,14.54,0,0,0,2.85,76.2m1.51.39A13.85,13.85,0,0,1,6.77,75l.48-.23,0,0a14.38,14.38,0,0,1-2.57,1.67l-.3.14m1,.34a14.23,14.23,0,0,0,2.16-1.86c.23-.24.43-.47.61-.69l.5-.21a7.08,7.08,0,0,1-3.27,2.76M4.09,89.62a5.48,5.48,0,0,1,.35-.56A9,9,0,0,1,8,86.3,9.24,9.24,0,0,1,8.9,86c-.6.31-1.19.64-1.76,1a14.53,14.53,0,0,0-3.06,2.66M5.6,90A13.7,13.7,0,0,1,8,88.41l.48-.23,0,0a14.41,14.41,0,0,1-2.57,1.67L5.6,90m1,.34a14.2,14.2,0,0,0,2.16-1.86c.23-.24.43-.47.61-.69l.5-.21a7.1,7.1,0,0,1-3.27,2.76"/><path class="cls-2" d="M56.28,11.54a83.22,83.22,0,0,1,.59,11.19V32.5Q71,13.78,75.94,4.83c.16-.31.37-.71.65-1.18s.55-1,.82-1.47.45-.77.53-.77a1,1,0,0,1,1.65-.35,1.3,1.3,0,0,1,.35,1.53l-.82,1.53Q71,16.13,68.29,20q-4.71,6.24-11.42,15v.35a1.92,1.92,0,0,1,.35.47A13.92,13.92,0,0,1,59.1,38.5,42.64,42.64,0,0,1,61,42.68Q62,45.33,62.4,46a250.2,250.2,0,0,1,10.83,35.2q.23,1.3.94,4.47t1.18,4.59a1,1,0,0,1-.24.94.9.9,0,0,1-.88.24.81.81,0,0,1-.65-.71q-.47-1.65-1.71-6.65t-1.77-7q-.53-2-1.71-6.54T66.52,63.7l-1.88-6.24q-1.18-3.89-2.24-6.59T60,45q-1.3-3.12-2.59-5.83l-.71-1.06V40.5Q56,59.93,54.28,75.94q-.47,4-.94,6.6A2.16,2.16,0,0,1,52,84.18,2.14,2.14,0,0,1,50,84.07c-.67-.39,0-1-.12-1.77q0-.35-.06-3.06t-.06-3.65V71.11q0-3.53.12-5.42,0-6.83.82-19L51,40.15c.55-8.48.65-18.05,2.3-28.73a1.28,1.28,0,0,1,1.53-1.18,1.36,1.36,0,0,1,1.41,1.29"/><path class="cls-2" d="M85.83,13.42q.12,4.71.23,14.07t.12,12.19q0,1.18.06,3.53t.06,3.53v6.95q0,2.36-.06,6.42t-.06,5.83q0,4.48-.12,8.59v3.3a1.84,1.84,0,0,1-.65,1.41,2.3,2.3,0,0,1-2.89-.06,1.74,1.74,0,0,1-.59-1.36q-.12-1.17-.24-3.18,0-2.94-.18-10.07t-.18-10.77q-.12-2.35-.12-6.95V39.68q0-4.94.12-13.89,0-3.53.18-7.89t.41-9.36q.24-5,.35-7.12Q82.41,0,84,0t1.59,1.53q0,1.3.12,3.3V8.6q.12,2.83.12,4.83"/><path class="cls-2" d="M104.55,42.27c.94.32,1.33.71,1.18,1.18a1.07,1.07,0,0,1,.12.47v.47a8.34,8.34,0,0,1,.29,1.77c0,.63.08,1.38.12,2.24s.06,1.49.06,1.88a15.4,15.4,0,0,1,.18,2.3q.06,1.83.18,2.94a25.08,25.08,0,0,0,.41,2.53,4,4,0,0,0,.88,2,1.58,1.58,0,0,0,1.41.47,10.8,10.8,0,0,0,6.3-3.41,64.4,64.4,0,0,0,6.65-9.18,1.05,1.05,0,0,1,1.06-.47q.59.12.35.82v.12q-2,3.06-3.41,5.06a53.78,53.78,0,0,1-3.41,4.3,16.7,16.7,0,0,1-4,3.47,7.83,7.83,0,0,1-4,1.18,5.21,5.21,0,0,1-2.35-.53,3.8,3.8,0,0,1-1.65-1.59,16.74,16.74,0,0,1-1-2.12,10.44,10.44,0,0,1-.59-2.59q-.18-1.53-.24-2.59T103,50.51a16.38,16.38,0,0,1,.12-1.77,21.3,21.3,0,0,1-5.89,5.77,3.47,3.47,0,0,1-2.88.65q-1.71-.29-1.71-2.41a1.94,1.94,0,0,1,.24-1.06,4.58,4.58,0,0,1,.94-2.35A17.45,17.45,0,0,1,100,43.21a7.13,7.13,0,0,1,3.88-1.06,1.67,1.67,0,0,1,.35.06,1.54,1.54,0,0,0,.35.06M104.31,44h-.47a6.71,6.71,0,0,0-4.18,2.65,14.82,14.82,0,0,0-2.89,4.89Q102.19,48,103.84,45a4.68,4.68,0,0,1,.47-.94"/><path class="cls-2" d="M121.85,72.88a24.26,24.26,0,0,1-.94-6.12V64.64a57.24,57.24,0,0,1,1.3-16q.59-2.83,2.35-2.24a1.5,1.5,0,0,1,1.06,1.18,71.9,71.9,0,0,1,1.18,12.6v4.59q0,.35-.06,1.06c0,.47-.06.79-.06.94a3,3,0,0,0-.12.94,99.13,99.13,0,0,1,5.65-12.6,12.62,12.62,0,0,1,4.12-4.83,5.86,5.86,0,0,1,1.77-.59h.82l.24.12q3.65.71,4.83,8a38.14,38.14,0,0,1,.47,5.42,100.16,100.16,0,0,1-.59,18.6A1.79,1.79,0,0,1,142,83.54a1.92,1.92,0,0,1-2.12-1.47,33.92,33.92,0,0,1-.94-9.3,73.6,73.6,0,0,1,.41-8.71q.53-5.89.53-8.6a5.44,5.44,0,0,0-.71-3.18c-.08-.24-.16-.35-.24-.35a.1.1,0,0,0-.12-.12l-.23-.12h-.24c0-.08-.08-.12-.24-.12h-.35q-2.12.36-4.48,4A39,39,0,0,0,129,63.46a37,37,0,0,0-2.47,8.6l-.23.59a1,1,0,0,1-.12.47,2.16,2.16,0,0,1-2.29,1.35,2,2,0,0,1-2.06-1.59"/><path class="cls-2" d="M168.83,44.5a2.51,2.51,0,0,1,2.47.35q.35,0,1.53,1.3,7.42,9.66,9.77,28.14,11.66-1.06,14.6,4.71l.12.47a.76.76,0,0,1-.18.77.79.79,0,0,1-.71.24.59.59,0,0,1-.53-.41v-.12q-2.36-5.41-13.07-4.36,1.88,16.48-4.71,29.44a38.53,38.53,0,0,1-4.12,6.36,30.42,30.42,0,0,1-5.59,5.36,24,24,0,0,1-6.77,3.59,17,17,0,0,1-5.77,1.06,9.09,9.09,0,0,1-8.48-4.71,21.84,21.84,0,0,1-2.47-11.77v-.71l.12-.47a13.9,13.9,0,0,1,.71-3.77q2.12-8.36,10.71-15.31A48,48,0,0,1,166,78.88a53.2,53.2,0,0,1,10.71-3.77q-1.06-10.6-1.3-12.13a78.07,78.07,0,0,0-4.36-15.89,3.2,3.2,0,0,0-1.18-1.24,2.65,2.65,0,0,0-1.65.29,24.65,24.65,0,0,0-4.94,4.12q-.35.35-2.53,2.71a38.14,38.14,0,0,1-3.47,3.41q-2.71,2.36-4.95,1.88a1.87,1.87,0,0,1-1.18-.47l-.12-.24a5.26,5.26,0,0,1-1.94-3.65,9.09,9.09,0,0,1,.53-4.47,16.17,16.17,0,0,1,6.48-8q5.54-4,9.65-2.12a5.43,5.43,0,0,1,3.06,4.59Zm-21.9,59.58v1.18a20.87,20.87,0,0,0,2.12,9.95,6.86,6.86,0,0,0,6.95,3.71,13.71,13.71,0,0,0,4.59-1.18q8.71-4.12,13.42-17.19a1.39,1.39,0,0,0,.24-.53,2.62,2.62,0,0,0,.12-.65l.35-1.18q3.06-13.31,2.12-21.78a52.37,52.37,0,0,0-14.66,6.12,36.09,36.09,0,0,0-11,9.89,21.27,21.27,0,0,0-4.24,10.48v1.18Zm20.6-59.22V44A3.23,3.23,0,0,0,165.83,41a4.59,4.59,0,0,0-4.06,0,13.24,13.24,0,0,0-5,3.83,17.68,17.68,0,0,0-3.59,6.06,7.27,7.27,0,0,0-.35,2.71,4.5,4.5,0,0,0,.35,1.41h.12a5.59,5.59,0,0,0,2.24-.82q1.41-.94,3.12-2.24t3.83-3q2.12-1.7,3.18-2.53a7.76,7.76,0,0,1,2-1.18.9.9,0,0,1-.12-.35"/><path class="cls-2" d="M37.51,104.94a.43.43,0,0,1,.29.15s.07.14.22.29q1.46,2.77.22,11.07-.07.8-.22,2.84a1.52,1.52,0,0,0,.4,1.2q.47.55.4.69t-.69.07a5.9,5.9,0,0,1-1-.62,3.07,3.07,0,0,1-.69-.62,6.61,6.61,0,0,1-.51-.91,3.62,3.62,0,0,1-.29-1.13q-.07-.66-.14-1.17a7.05,7.05,0,0,1,0-1.31c0-.54,0-1,.07-1.27s.07-.78.15-1.38.12-1,.14-1.27.08-.67.18-1.27a6.08,6.08,0,0,1,.22-1.06c0-.34.08-.67.11-1s0-.64,0-1a3.49,3.49,0,0,0-.07-.8q-.07-.29-.29-.22-2,.8-5,4.81a27,27,0,0,0-2.26,3.79h-.07q-.22.66-1.09.58a.49.49,0,0,1-.29-.11,1.19,1.19,0,0,1-.29-.36,1.93,1.93,0,0,0-.29-.4v-6q0-.44,0-1.42c0-.65,0-1.18,0-1.57q.07-1,.07-3.28Q27.16,84,28.4,75.66a.94.94,0,0,1,1.13-.87.93.93,0,0,1,1,1v1.67q0,3.28-.11,7.25t-.22,6.77q-.11,2.81-.33,7.39t-.36,6.63q-.07,1.17-.26,3.64T29,112.44q3.64-6,7.36-7.43a1.43,1.43,0,0,1,1.17-.07"/><path class="cls-2" d="M47.89,110.09a7.21,7.21,0,0,1-4.26-1.31,5.21,5.21,0,0,1-2.22-3.57,7.54,7.54,0,0,1,.47-4.48,8,8,0,0,1,2.59-3.31,3.49,3.49,0,0,1,2.18-.73,2.8,2.8,0,0,1,1.82.66,2,2,0,0,1,.8,1.6v.51A4.34,4.34,0,0,1,48,102.59a6.92,6.92,0,0,1-2.88,1.82.06.06,0,0,1-.07.07c-.1,0-.15,0-.15.07q.44,3.21,2.48,4.22,2.26,1.17,5.43-.8A20.26,20.26,0,0,0,58,103.46q.29-.44.58,0c.19.25.22.44.07.58a18.91,18.91,0,0,1-4.84,4.26,10.55,10.55,0,0,1-5.93,1.78m-.15-10.78-.15-.36q-.8-.73-1.53.44a7.93,7.93,0,0,0-1,2.4,6.32,6.32,0,0,0-.22,1.67,5,5,0,0,0,2-1.46,3.48,3.48,0,0,0,.87-2.33v-.36Z"/><path class="cls-2" d="M58.45,99.61c-.24,0-.5-.26-.76-.77s-.47-.79-.62-.84a7,7,0,0,1-.44-.87v-.18s0-.06-.07-.11l-.07-.15a1.12,1.12,0,0,1,.51-1.2.92.92,0,0,1,1.31.18,3.79,3.79,0,0,1,.87,2.77V99a.58.58,0,0,1-.73.58m3.86,9.61.87.11a1.23,1.23,0,0,0,.8-.26q.44-.29.76-.47a3.09,3.09,0,0,0,.73-.62l.69-.77a6.77,6.77,0,0,0,.62-.84c.22-.34.4-.61.55-.8a7.69,7.69,0,0,0,.47-.73c.17-.29.3-.51.4-.65a.21.21,0,0,0,.07-.15q.36-.58.73-.44a.34.34,0,0,1,.25.25.35.35,0,0,1-.11.33,17.31,17.31,0,0,1-4.3,5.75,5.13,5.13,0,0,1-2.77,1.46,4.41,4.41,0,0,1-3.42-1.2,6.35,6.35,0,0,1-1.16-6.12q.44-1.35,1.38-.76a.65.65,0,0,1,.33.22,1.26,1.26,0,0,1,.18.37l.15.44c0,.15.1.32.15.51a2,2,0,0,1,.07.44,5.31,5.31,0,0,1,.22.66c.1.34.17.58.22.73l.22.65a2.88,2.88,0,0,0,.29.66c.1.14.22.32.37.51a1.69,1.69,0,0,0,.55.47,2.32,2.32,0,0,0,.69.25"/><path class="cls-2" d="M69.81,100q.8,2.33.8,9.18a15.73,15.73,0,0,1-.07,1.75v1.6q-.15,1.31-.15,1.9a6.51,6.51,0,0,0,.62-1.38l.4-1.17q.29-.58.91-2.07t1-2.33a16.62,16.62,0,0,1,1.09-1.89,11.26,11.26,0,0,1,1.42-1.78,3.94,3.94,0,0,1,1.09-.73h.29l.07-.07.07.07a1.38,1.38,0,0,1,.8.25,2,2,0,0,1,.62.87l.33.8c0,.12.15.4.29.84a21.22,21.22,0,0,1,.51,4.81,15.47,15.47,0,0,1-.07,1.75s0-.12.15-.22q.29-.66.95-2.08t1.2-2.48a20.25,20.25,0,0,1,1.13-1.93q.73-1.17,1.6-.87a.16.16,0,0,1,.11,0,.14.14,0,0,0,.11,0q.58,0,1.24,2a25,25,0,0,1,.8,6q.07,1.46,0,3.17T87,119.63q-.11,1.82-.11,3a8.12,8.12,0,0,0,.36,2l.44.51h.07a.29.29,0,0,1-.29.22h-.15q-1.89,0-2.69-4.66a37,37,0,0,1-.58-8l.22-2.88q.15-1.93.15-2.88v-.8a.21.21,0,0,1,.15-.07v.07h.15v-.07a.06.06,0,0,0-.07-.07.78.78,0,0,0-.44.15,2.67,2.67,0,0,0-.4.33,4.52,4.52,0,0,0-.4.47l-.36.47a2.59,2.59,0,0,0-.29.47l-.22.44a33,33,0,0,0-2.4,5.39L79.71,115a.92.92,0,0,1-.58.91,1.31,1.31,0,0,1-1.16,0,1.13,1.13,0,0,1-.65-.95v-2.7a17.41,17.41,0,0,1,.07-1.82q0-.73.07-2.22c0-1,.07-1.74.07-2.22a6.63,6.63,0,0,0-.07-1.17,2,2,0,0,0-.07-.44v-.22h-.29a5.18,5.18,0,0,0-1.31,1.24,28.71,28.71,0,0,0-3.64,6.63A34.72,34.72,0,0,0,70,118.25a1.32,1.32,0,0,1-1.46,1.17,1.17,1.17,0,0,1-1.31-1.24Q67,117,67,115.34v-3.46a5,5,0,0,1,0-.62,3.85,3.85,0,0,0,0-.51c0-.53.09-1.2.11-2s0-1.49.07-2.07.07-1.23.15-1.93a13.71,13.71,0,0,1,.33-1.93q.07-.36.51-2.77a.71.71,0,0,1,.8-.62.78.78,0,0,1,.8.62"/><path class="cls-2" d="M94.06,82.34q.07,2.91.15,8.7t.07,7.54c0,.49,0,1.21,0,2.18s0,1.7,0,2.18v4.3q0,1.46,0,4t0,3.61q0,2.77-.07,5.32v2a1.14,1.14,0,0,1-.4.87A1.43,1.43,0,0,1,92,123a1.07,1.07,0,0,1-.36-.84q-.07-.73-.15-2,0-1.82-.11-6.23t-.11-6.66q-.07-1.46-.07-4.3V98.59q0-3.06.07-8.59,0-2.18.11-4.88t.25-5.79q.14-3.09.22-4.41c0-.58.4-.87,1.06-.87s1,.32,1,.95,0,1.21.07,2v2.33q.07,1.75.07,3"/><path class="cls-2" d="M100.32,99.61c-.24,0-.5-.26-.76-.77s-.47-.79-.62-.84a7,7,0,0,1-.44-.87v-.18s0-.06-.07-.11l-.07-.15a1.12,1.12,0,0,1,.51-1.2.92.92,0,0,1,1.31.18,3.79,3.79,0,0,1,.87,2.77V99a.58.58,0,0,1-.73.58m3.86,9.61.87.11a1.23,1.23,0,0,0,.8-.26q.44-.29.76-.47a3.09,3.09,0,0,0,.73-.62l.69-.77a6.77,6.77,0,0,0,.62-.84c.22-.34.4-.61.55-.8a7.69,7.69,0,0,0,.47-.73c.17-.29.3-.51.4-.65a.21.21,0,0,0,.07-.15q.36-.58.73-.44a.34.34,0,0,1,.25.25.35.35,0,0,1-.11.33,17.31,17.31,0,0,1-4.3,5.75A5.13,5.13,0,0,1,104,111.4a4.41,4.41,0,0,1-3.42-1.2,6.35,6.35,0,0,1-1.16-6.12q.44-1.35,1.38-.76a.65.65,0,0,1,.33.22,1.26,1.26,0,0,1,.18.37l.15.44c0,.15.1.32.15.51a2,2,0,0,1,.07.44,5.31,5.31,0,0,1,.22.66c.1.34.17.58.22.73l.22.65a2.88,2.88,0,0,0,.29.66c.1.14.22.32.37.51a1.69,1.69,0,0,0,.55.47,2.32,2.32,0,0,0,.69.25"/><path class="cls-2" d="M113,104.7l-.15.95v1.53c0,.14,0,.35,0,.62s0,.45,0,.55q.58,4.51,3.2,6.48a4.83,4.83,0,0,0,2,.87h.07c.29,0,.4.21.33.47a.47.47,0,0,1-.47.4h-.37a6,6,0,0,1-3.86-1.6,11.67,11.67,0,0,1-3.57-5,7.49,7.49,0,0,1-.44-2.77,11.29,11.29,0,0,1,.07-1.46,8.3,8.3,0,0,1,2-5q2.19-2.47,4.22-2.48a2.65,2.65,0,0,1,1.46.26,2.57,2.57,0,0,1,1,.87,5,5,0,0,1,.58,1.2l.15.73c0,.34-.14.51-.4.51a.45.45,0,0,1-.47-.44.64.64,0,0,1-.07-.29,1.85,1.85,0,0,0-.26-.95,1.4,1.4,0,0,0-.76-.62,1.86,1.86,0,0,0-1.09,0,2.7,2.7,0,0,0-1.68,1,5.58,5.58,0,0,0-1,1.71q-.29.84-.65,2.22Z"/><path class="cls-2" d="M135.06,105.94a.43.43,0,0,1,.29.15s.07.14.22.29q1.46,2.77.22,11.07-.07.8-.22,2.84a1.52,1.52,0,0,0,.4,1.2q.47.55.4.69t-.69.07a5.9,5.9,0,0,1-1-.62A3.07,3.07,0,0,1,134,121a6.61,6.61,0,0,1-.51-.91,3.62,3.62,0,0,1-.29-1.13q-.07-.66-.14-1.17a7.05,7.05,0,0,1,0-1.31c0-.54,0-1,.07-1.27s.07-.78.15-1.38.12-1,.14-1.27.08-.67.18-1.27a6.08,6.08,0,0,1,.22-1.06c0-.34.08-.67.11-1s0-.64,0-1a3.49,3.49,0,0,0-.07-.8q-.07-.29-.29-.22-2,.8-5,4.81a27,27,0,0,0-2.26,3.79h-.07q-.22.66-1.09.58a.49.49,0,0,1-.29-.11,1.19,1.19,0,0,1-.29-.36,1.93,1.93,0,0,0-.29-.4v-6q0-.44,0-1.42c0-.65,0-1.18,0-1.57q.07-1,.07-3.28Q124.72,85,126,76.66a.94.94,0,0,1,1.13-.87.93.93,0,0,1,1,1v1.67q0,3.28-.11,7.25t-.22,6.77q-.11,2.81-.33,7.39t-.36,6.63q-.07,1.17-.26,3.64t-.26,3.28q3.64-6,7.36-7.43a1.43,1.43,0,0,1,1.17-.07"/></g></g></svg>