<svg xmlns="http://www.w3.org/2000/svg" width="137.4mm" height="87.3mm" viewBox="0 0 389.4 247.4">
  <defs>
    <style>
      .cls-1 {
        fill: #fff;
      }
    </style>
  </defs>
  <title>logo</title>
  <g id="Ebene_2" data-name="Ebene 2">
    <g id="Ebene_1-2" data-name="Ebene 1">
      <g>
        <path class="cls-1" d="M45.9,94.3c-4.1-6.1-10.6-11.8-14.5-17.7a52.7,52.7,0,0,1-5.2-9.3c.1-1.5.1-3,.2-4.5a3.8,3.8,0,0,0-.1-1.6c-.2-.4-.8-.3-.8-.3l-3.8-.2a.8.8,0,0,0-.8.6,9.7,9.7,0,0,0-.2,2.1c-.8,22.2-.2,50.1.5,79.4l-.3-.2h-.1L19,141.3h0l-.5.2a14.3,14.3,0,0,0-5.9-.1,17.6,17.6,0,0,0-9.4,5.1,11.4,11.4,0,0,0-3.1,7v1.7c.3.6-.6-1,.7,1.5l.4.3a5.3,5.3,0,0,0,3,1.1,13.2,13.2,0,0,0,4.5-.5c4.6-1.5,10.8-4.4,12.7-11q.2,8.2.4,16.6c.1,2.4.1,4,.2,4.7l-.4-.3h0l-.5.2a14.3,14.3,0,0,0-5.9-.1,17.6,17.6,0,0,0-9.4,5.1,11.4,11.4,0,0,0-3.1,7v1.7c.3.6-.6-1,.7,1.5l.4.3a5.3,5.3,0,0,0,3,1.1,13.2,13.2,0,0,0,4.5-.5c5.1-1.7,12.2-5,13.1-13.3v-1.3h0l-.3-.2a6.6,6.6,0,0,0,0-.9s-.1-1.8-.1-4.8c-.4-19.4.9-66.8,2.2-93.7a44.5,44.5,0,0,0,2.4,8.2c2.7,7.1,8.6,14.6,11.9,19.7,6.7,9.3.3,17.2,1.4,17.3a16.5,16.5,0,0,0,4.3-3.8C48.8,108.8,50.6,100.5,45.9,94.3ZM5.6,150.3l.7-1.1a17.8,17.8,0,0,1,7-5.4l1.8-.7-3.5,2A28.7,28.7,0,0,0,5.6,150.3Zm3,.8a27.3,27.3,0,0,1,4.8-3.1l1-.5h-.1a28.4,28.4,0,0,1-5.1,3.3Zm1.9.7a28,28,0,0,0,4.3-3.7l1.2-1.4,1-.4C15.7,148.7,13.1,150.6,10.5,151.8Zm-2.4,25,.7-1.1a17.8,17.8,0,0,1,7-5.4l1.8-.7-3.5,2A28.7,28.7,0,0,0,8.1,176.8Zm3,.8a27.2,27.2,0,0,1,4.8-3.1l1-.5h-.1a28.4,28.4,0,0,1-5.1,3.3Zm1.9.7a27.9,27.9,0,0,0,4.3-3.7l1.2-1.4,1-.4C18.2,175.1,15.6,177,12.9,178.2Z"/>
        <g>
          <path class="cls-1" d="M111,22.8a164.3,164.3,0,0,1,1.2,22.1V64.1q27.9-36.9,37.6-54.6l1.3-2.3,1.6-2.9q.8-1.5,1-1.5,1.2-2.1,3.3-.7a2.6,2.6,0,0,1,.7,3l-1.6,3q-16,23.7-21.4,31.4L112.2,69v.7a3.8,3.8,0,0,1,.7.9,27.5,27.5,0,0,1,3.7,5.3,84.4,84.4,0,0,1,3.7,8.2q2.1,5.2,2.8,6.6,14.9,39.3,21.4,69.5.5,2.6,1.9,8.8t2.3,9.1a1.9,1.9,0,0,1-.5,1.9,1.8,1.8,0,0,1-1.7.5,1.6,1.6,0,0,1-1.3-1.4q-.9-3.3-3.4-13.1t-3.5-13.8L135,139.3q-2.3-8.9-3.7-13.6l-3.7-12.3q-2.3-7.7-4.4-13t-4.6-11.5q-2.6-6.2-5.1-11.5L112,75.3v4.6q-1.4,38.3-4.9,69.9-.9,7.9-1.9,13a4.3,4.3,0,0,1-2.6,3.3,4.2,4.2,0,0,1-4.1-.2c-1.3-.8-.1-1.9-.2-3.5s0-2.5-.1-6-.1-6-.1-7.2v-8.8q0-7,.2-10.7,0-13.5,1.6-37.4l.7-13c1.1-16.7,1.3-35.6,4.5-56.7a2.5,2.5,0,0,1,3-2.3A2.7,2.7,0,0,1,111,22.8Z"/>
          <path class="cls-1" d="M169.3,26.5q.2,9.3.5,27.8t.2,24q0,2.3.1,7t.1,7v13.7q0,4.6-.1,12.7t-.1,11.5q0,8.8-.2,17v6.5a3.6,3.6,0,0,1-1.3,2.8,4.5,4.5,0,0,1-5.7-.1,3.4,3.4,0,0,1-1.2-2.7q-.2-2.3-.5-6.3,0-5.8-.3-19.9t-.3-21.3q-.2-4.6-.2-13.7V78.3q0-9.8.2-27.4,0-7,.3-15.6t.8-18.5q.5-9.9.7-14.1T165.7,0q3.1,0,3.1,3t.2,6.5V17Q169.3,22.5,169.3,26.5Z"/>
          <path class="cls-1" d="M206.3,83.4q2.8.9,2.3,2.3a2.1,2.1,0,0,1,.2.9v.9a16.6,16.6,0,0,1,.6,3.5q.1,1.9.2,4.4t.1,3.7a30.4,30.4,0,0,1,.3,4.5q.1,3.6.3,5.8a49.4,49.4,0,0,0,.8,5,7.8,7.8,0,0,0,1.7,3.9,3.1,3.1,0,0,0,2.8.9,21.3,21.3,0,0,0,12.4-6.7q5.2-5.6,13.1-18.1a2.1,2.1,0,0,1,2.1-.9c.8.2,1,.7.7,1.6v.2q-4,6-6.7,10a106,106,0,0,1-6.7,8.5,32.9,32.9,0,0,1-7.9,6.9,15.5,15.5,0,0,1-7.9,2.3,10.3,10.3,0,0,1-4.6-1,7.5,7.5,0,0,1-3.3-3.1,33.3,33.3,0,0,1-2-4.2,20.6,20.6,0,0,1-1.2-5.1q-.3-3-.5-5.1t-.1-4.9a32.3,32.3,0,0,1,.2-3.5q-5.8,7.9-11.6,11.4a6.8,6.8,0,0,1-5.7,1.3q-3.4-.6-3.4-4.8a3.8,3.8,0,0,1,.5-2.1,9,9,0,0,1,1.9-4.6q3.5-6.5,12.1-12.1a14.1,14.1,0,0,1,7.7-2.1h1.4Zm-.5,3.5h-.9q-4.2.5-8.2,5.2a29.2,29.2,0,0,0-5.7,9.6q10.7-7,13.9-13A9.1,9.1,0,0,1,205.8,86.9Z"/>
          <path class="cls-1" d="M240.4,143.8a47.9,47.9,0,0,1-1.9-12.1v-4.2a113,113,0,0,1,2.6-31.6q1.2-5.6,4.6-4.4a3,3,0,0,1,2.1,2.3,141.8,141.8,0,0,1,2.3,24.9v9.1c0,.5,0,1.2-.1,2.1s-.1,1.5-.1,1.9a6,6,0,0,0-.2,1.9q6.3-16.3,11.1-24.9a24.9,24.9,0,0,1,8.1-9.5,11.6,11.6,0,0,1,3.5-1.2h1.6l.5.2q7.2,1.4,9.5,15.8a75.1,75.1,0,0,1,.9,10.7,197.6,197.6,0,0,1-1.2,36.7,3.5,3.5,0,0,1-3.7,3.4,3.8,3.8,0,0,1-4.2-2.9q-1.9-6-1.9-18.4a144.9,144.9,0,0,1,.8-17.2q1-11.6,1-17t-1.4-6.3c-.2-.5-.3-.7-.5-.7a.2.2,0,0,0-.2-.2l-.5-.2h-.5c0-.2-.2-.2-.5-.2h-.7q-4.2.7-8.8,7.9a76.9,76.9,0,0,0-8.4,15.6,72.9,72.9,0,0,0-4.9,17l-.5,1.2a2.1,2.1,0,0,1-.2.9,4.3,4.3,0,0,1-4.5,2.7Q241.1,146.8,240.4,143.8Z"/>
          <path class="cls-1" d="M333.1,87.8a5,5,0,0,1,4.9.7q.7,0,3,2.6,14.6,19.1,19.3,55.5,23-2.1,28.8,9.3l.2.9a1.5,1.5,0,0,1-.3,1.5,1.6,1.6,0,0,1-1.4.5,1.2,1.2,0,0,1-1-.8v-.2q-4.6-10.7-25.8-8.6,3.7,32.5-9.3,58.1a75.9,75.9,0,0,1-8.1,12.5,60,60,0,0,1-11,10.6,47.4,47.4,0,0,1-13.4,7.1,33.5,33.5,0,0,1-11.4,2.1q-11.4,0-16.7-9.3T285.9,207v-1.4l.2-.9a27.5,27.5,0,0,1,1.4-7.4q4.2-16.5,21.1-30.2a94.7,94.7,0,0,1,18.8-11.4,104.9,104.9,0,0,1,21.1-7.4q-2.1-20.9-2.6-23.9-3.7-20-8.6-31.4a6.3,6.3,0,0,0-2.3-2.4q-.9-.3-3.3.6t-9.8,8.1l-5,5.3a75.1,75.1,0,0,1-6.9,6.7q-5.3,4.6-9.8,3.7a3.7,3.7,0,0,1-2.3-.9l-.2-.5a10.4,10.4,0,0,1-3.8-7.2,17.9,17.9,0,0,1,1-8.8q3.3-9.3,12.8-15.8t19-4.2q5.1,2.3,6,9.1ZM289.9,205.3v2.3q0,11.8,4.2,19.6t13.7,7.3a27,27,0,0,0,9.1-2.3q17.2-8.1,26.5-33.9a2.7,2.7,0,0,0,.5-1,5.1,5.1,0,0,0,.2-1.3l.7-2.3q6-26.3,4.2-43A103.3,103.3,0,0,0,320,162.8q-13.8,8.4-21.7,19.5a42,42,0,0,0-8.4,20.7v2.3ZM330.5,88.5V86.9a6.4,6.4,0,0,0-3.4-6q-3.4-1.9-8,0t-9.9,7.5a34.9,34.9,0,0,0-7.1,12,14.4,14.4,0,0,0-.7,5.3,8.9,8.9,0,0,0,.7,2.8h.2a11,11,0,0,0,4.4-1.6l6.2-4.4,7.5-5.9,6.3-5a15.4,15.4,0,0,1,3.9-2.3A1.8,1.8,0,0,1,330.5,88.5Z"/>
        </g>
        <g>
          <path class="cls-1" d="M74,207l.6.3.4.6q2.9,5.5.4,21.8-.1,1.6-.4,5.6a3,3,0,0,0,.8,2.4q.9,1.1.8,1.4t-1.4.1l-2-1.2a6.1,6.1,0,0,1-1.4-1.2,12.8,12.8,0,0,1-1-1.8,7.1,7.1,0,0,1-.6-2.2l-.3-2.3a14.1,14.1,0,0,1-.1-2.6c0-1.1.1-1.9.1-2.5s.1-1.5.3-2.7l.3-2.5c0-.5.2-1.3.4-2.5a11.9,11.9,0,0,1,.4-2.1q.1-1,.2-1.9c0-.6.1-1.3.1-1.9a6.9,6.9,0,0,0-.1-1.6q-.1-.6-.6-.4-4,1.6-9.9,9.5a53,53,0,0,0-4.5,7.5h-.1c-.3.9-1,1.2-2.2,1.1l-.6-.2-.6-.7-.6-.8V214.1q0-.9.1-2.8t.1-3.1q.1-2,.1-6.5.7-36.1,3.2-52.4a1.9,1.9,0,0,1,2.2-1.7,1.8,1.8,0,0,1,1.9,2v3.3q0,6.5-.2,14.3t-.4,13.4q-.2,5.5-.6,14.6t-.7,13.1q-.1,2.3-.5,7.2t-.5,6.5q7.2-11.8,14.5-14.7A2.8,2.8,0,0,1,74,207Z"/>
          <path class="cls-1" d="M94.5,217.2a14.2,14.2,0,0,1-8.4-2.6,10.3,10.3,0,0,1-4.4-7,14.9,14.9,0,0,1,.9-8.8,15.8,15.8,0,0,1,5.1-6.5,6.9,6.9,0,0,1,4.3-1.4,5.5,5.5,0,0,1,3.6,1.3,3.9,3.9,0,0,1,1.6,3.2v1a8.6,8.6,0,0,1-2.5,6.2A13.6,13.6,0,0,1,89,206h-.4q.9,6.3,4.9,8.3t10.7-1.6a39.9,39.9,0,0,0,10.3-8.9q.6-.9,1.1,0c.4.5.4.9.1,1.2a37.3,37.3,0,0,1-9.6,8.4A20.8,20.8,0,0,1,94.5,217.2Zm-.3-21.3-.3-.7q-1.6-1.4-3,.9a15.6,15.6,0,0,0-2,4.7,12.5,12.5,0,0,0-.4,3.3,9.8,9.8,0,0,0,4-2.9,6.9,6.9,0,0,0,1.7-4.6v-.6Z"/>
          <path class="cls-1" d="M115.3,196.5q-.7,0-1.5-1.5t-1.2-1.7l-.9-1.7v-.2h0v-.5a2.2,2.2,0,0,1,1-2.4,1.8,1.8,0,0,1,2.6.4q1.7,1.7,1.7,5.5v1.2A1.2,1.2,0,0,1,115.3,196.5Zm7.6,19,1.7.2a2.4,2.4,0,0,0,1.6-.5l1.5-.9a6.1,6.1,0,0,0,1.4-1.2l1.4-1.5,1.2-1.7,1.1-1.6.9-1.4.8-1.3v-.3q.7-1.2,1.4-.9a.7.7,0,0,1,.5.5.7.7,0,0,1-.2.6,34.1,34.1,0,0,1-8.5,11.4,10.1,10.1,0,0,1-5.5,2.9q-4.6,0-6.8-2.4a12.5,12.5,0,0,1-2.3-12.1q.9-2.7,2.7-1.5l.6.4.4.7.3.9.3,1a4,4,0,0,1,.1.9l.4,1.3.4,1.4.4,1.3a5.6,5.6,0,0,0,.6,1.3l.7,1a3.4,3.4,0,0,0,1.1.9Z"/>
          <path class="cls-1" d="M137.7,197.4q1.6,4.6,1.6,18.1a30.6,30.6,0,0,1-.1,3.4v3.2q-.3,2.6-.3,3.7a12.8,12.8,0,0,0,1.2-2.7l.8-2.3q.6-1.1,1.8-4.1t2-4.6a32.8,32.8,0,0,1,2.2-3.7,22.2,22.2,0,0,1,2.8-3.5,7.8,7.8,0,0,1,2.2-1.4h.9a2.7,2.7,0,0,1,1.6.5,3.8,3.8,0,0,1,1.2,1.7l.6,1.6.6,1.7a41.9,41.9,0,0,1,1,9.5,30.6,30.6,0,0,1-.1,3.4l.3-.4,1.9-4.1,2.4-4.9a40.2,40.2,0,0,1,2.2-3.8q1.4-2.3,3.2-1.7h.4q1.1,0,2.4,3.9t1.6,11.9q.1,2.9,0,6.3t-.4,7q-.2,3.6-.2,5.9a15.9,15.9,0,0,0,.7,4l.9,1h.1a.6.6,0,0,1-.6.4h-.3q-3.7,0-5.3-9.2a73.1,73.1,0,0,1-1.2-15.8l.4-5.7q.3-3.8.3-5.7v-1.6h.4l-.9.3-.8.6-.8.9-.7.9-.6.9-.4.9a65.3,65.3,0,0,0-4.7,10.6l-.7,2.6a1.8,1.8,0,0,1-1.2,1.8,2.6,2.6,0,0,1-2.3-.1,2.2,2.2,0,0,1-1.3-1.9v-5.3a34.4,34.4,0,0,1,.1-3.6q0-1.4.1-4.4t.1-4.4a13.2,13.2,0,0,0-.1-2.3,4,4,0,0,0-.1-.9v-.3h-.6a10.2,10.2,0,0,0-2.6,2.4q-3.3,4-7.2,13.1a68.6,68.6,0,0,0-4.3,12.2,2.6,2.6,0,0,1-2.9,2.3,2.3,2.3,0,0,1-2.6-2.4q-.3-2.3-.4-5.6v-6.8a9.8,9.8,0,0,1,.1-1.2,7.8,7.8,0,0,0,.1-1c.1-1.1.2-2.4.2-4s.1-2.9.1-4.1.1-2.4.3-3.8a27.3,27.3,0,0,1,.6-3.8l1-5.5a1.4,1.4,0,0,1,1.6-1.2A1.5,1.5,0,0,1,137.7,197.4Z"/>
          <path class="cls-1" d="M185.6,162.5q.1,5.7.3,17.2t.1,14.9c0,1,0,2.4.1,4.3s.1,3.4.1,4.3v8.5q0,2.9-.1,7.8t-.1,7.1q0,5.5-.1,10.5v4a2.3,2.3,0,0,1-.8,1.7,2.8,2.8,0,0,1-3.5-.1,2.1,2.1,0,0,1-.7-1.7q-.1-1.4-.3-3.9t-.2-12.3q-.2-8.7-.2-13.1-.1-2.9-.1-8.5v-8.8q0-6,.1-17,0-4.3.2-9.6t.5-11.4q.3-6.1.4-8.7c.1-1.1.8-1.7,2.1-1.7s1.9.6,1.9,1.9,0,2.4.1,4v4.6Q185.6,160,185.6,162.5Z"/>
          <path class="cls-1" d="M197.9,196.5q-.7,0-1.5-1.5t-1.2-1.7l-.9-1.7v-.2h0v-.5a2.2,2.2,0,0,1,1-2.4,1.8,1.8,0,0,1,2.6.4q1.7,1.7,1.7,5.5v1.2A1.2,1.2,0,0,1,197.9,196.5Zm7.6,19,1.7.2a2.4,2.4,0,0,0,1.6-.5l1.5-.9a6.1,6.1,0,0,0,1.4-1.2l1.4-1.5,1.2-1.7,1.1-1.6.9-1.4.8-1.3v-.3q.7-1.2,1.4-.9a.7.7,0,0,1,.5.5.7.7,0,0,1-.2.6,34.1,34.1,0,0,1-8.5,11.4,10.1,10.1,0,0,1-5.5,2.9q-4.6,0-6.8-2.4a12.5,12.5,0,0,1-2.3-12.1q.9-2.7,2.7-1.5l.6.4.4.7.3.9.3,1a4,4,0,0,1,.1.9l.4,1.3.4,1.4.4,1.3a5.6,5.6,0,0,0,.6,1.3l.7,1a3.4,3.4,0,0,0,1.1.9Z"/>
          <path class="cls-1" d="M222.9,206.6l-.3,1.9v3c0,.3,0,.7.1,1.2s.1.9.1,1.1q1.1,8.9,6.3,12.8a9.6,9.6,0,0,0,4,1.7h.1c.6.1.8.4.6.9a.9.9,0,0,1-.9.8h-.7a11.7,11.7,0,0,1-7.6-3.2,23,23,0,0,1-7-9.8,14.8,14.8,0,0,1-.9-5.5,21.9,21.9,0,0,1,.1-2.9q0-4.7,4-9.9t8.3-4.9a5.2,5.2,0,0,1,2.9.5,5.1,5.1,0,0,1,2,1.7,9.9,9.9,0,0,1,1.2,2.4l.3,1.4c0,.7-.3,1-.8,1a.9.9,0,0,1-.9-.9,1.3,1.3,0,0,1-.1-.6,3.6,3.6,0,0,0-.5-1.9,2.8,2.8,0,0,0-1.5-1.2,3.7,3.7,0,0,0-2.2-.1,5.3,5.3,0,0,0-3.3,2,11,11,0,0,0-2,3.4q-.6,1.7-1.3,4.4Z"/>
          <path class="cls-1" d="M266.5,209l.6.3.4.6q2.9,5.5.4,21.8-.1,1.6-.4,5.6a3,3,0,0,0,.8,2.4q.9,1.1.8,1.4t-1.4.1l-2-1.2a6.1,6.1,0,0,1-1.4-1.2,12.8,12.8,0,0,1-1-1.8,7.1,7.1,0,0,1-.6-2.2l-.3-2.3a14.1,14.1,0,0,1-.1-2.6c0-1.1.1-1.9.1-2.5s.1-1.5.3-2.7l.3-2.5c0-.5.2-1.3.4-2.5a11.9,11.9,0,0,1,.4-2.1q.1-1,.2-1.9c0-.6.1-1.3.1-1.9a6.9,6.9,0,0,0-.1-1.6q-.1-.6-.6-.4-4,1.6-9.9,9.5a53,53,0,0,0-4.5,7.5h-.1c-.3.9-1,1.2-2.2,1.1l-.6-.2-.6-.7-.6-.8V216q0-.9.1-2.8t.1-3.1q.1-2,.1-6.5.7-36.1,3.2-52.4a1.9,1.9,0,0,1,2.2-1.7,1.8,1.8,0,0,1,1.9,2v3.3q0,6.5-.2,14.3t-.4,13.4q-.2,5.5-.6,14.6t-.7,13.1q-.1,2.3-.5,7.2t-.5,6.5q7.2-11.8,14.5-14.7A2.8,2.8,0,0,1,266.5,209Z"/>
        </g>
      </g>
    </g>
  </g>
</svg>
