<?xml version="1.0" encoding="utf-8"?>
<!-- Generator: Adobe Illustrator 21.1.0, SVG Export Plug-In . SVG Version: 6.00 Build 0)  -->
<svg version="1.1" id="Capa_1" xmlns="http://www.w3.org/2000/svg" xmlns:xlink="http://www.w3.org/1999/xlink" x="0px" y="0px"
	 viewBox="0 0 492.2 492.2" style="enable-background:new 0 0 492.2 492.2;" xml:space="preserve">
<path d="M255.5,371.6c0-69.9,56.9-126.8,126.8-126.8c30.9,0,59.3,11.1,81.3,29.6c13.4-104-45.2-207.6-147.4-246.8
	C196.2-18.5,61.6,41.4,15.5,161.4S29.4,416,149.3,462.1c50.1,19.2,102.7,20,150.4,5.6C272.7,444.4,255.5,410,255.5,371.6z
	 M304.9,57.2c21.6,8.3,40.7,20.2,57,34.7l-78.2,77.4c-5.4-4-11.4-7.4-18-9.9c-6.6-2.5-13.3-4.1-20-4.7l-6.3-109.9
	C261.1,44.9,283.3,48.9,304.9,57.2z M160.7,432.5c-21.6-8.3-40.7-20.2-57-34.7l78.2-77.4c5.4,4,11.4,7.4,18,9.9
	c6.6,2.5,13.3,4.1,20,4.7l6.3,109.9C204.5,444.7,182.3,440.7,160.7,432.5z M215.5,289.7c-24.8-9.5-37.2-37.3-27.6-62.1
	c9.5-24.8,37.3-37.2,62.1-27.6c24.8,9.5,37.2,37.3,27.6,62.1C268.1,286.8,240.3,299.2,215.5,289.7z"/>
<path d="M384.4,264.6c-59.4,0-107.8,48.3-107.8,107.8c0,59.4,48.3,107.8,107.8,107.8s107.8-48.3,107.8-107.8
	C492.2,313,443.9,264.6,384.4,264.6z M384.4,453.7c-44.8,0-81.3-36.5-81.3-81.3s36.5-81.3,81.3-81.3s81.3,36.5,81.3,81.3
	S429.2,453.7,384.4,453.7z"/>
<path d="M364,419.9h-4c-6.6,0-12-5.4-12-12v-75c0-6.6,5.4-12,12-12h4c6.6,0,12,5.4,12,12v75C376,414.5,370.6,419.9,364,419.9z"/>
<path d="M412,419.9h-4c-6.6,0-12-5.4-12-12v-75c0-6.6,5.4-12,12-12h4c6.6,0,12,5.4,12,12v75C424,414.5,418.6,419.9,412,419.9z"/>
</svg>
